<?xml version="1.0" standalone="no"?>
<!DOCTYPE svg PUBLIC "-//W3C//DTD SVG 20010904//EN"
 "http://www.w3.org/TR/2001/REC-SVG-20010904/DTD/svg10.dtd">
<svg version="1.0" xmlns="http://www.w3.org/2000/svg"
 width="462.000000pt" height="462.000000pt" viewBox="0 0 462.000000 462.000000"
 preserveAspectRatio="xMidYMid meet">
<metadata>
Created by potrace 1.11, written by Peter Selinger 2001-2013
</metadata>
<g transform="translate(0.000000,462.000000) scale(0.100000,-0.100000)"
fill="#000000" stroke="none">
<path d="M0 2310 l0 -2310 2310 0 2310 0 0 2310 0 2310 -2310 0 -2310 0 0
-2310z m933 2058 c9 -18 19 -46 23 -63 12 -54 73 -102 98 -78 9 9 97 43 112
43 6 0 16 -12 23 -26 13 -29 5 -88 -29 -224 -10 -41 -26 -113 -34 -159 -9 -46
-27 -108 -41 -139 -32 -69 -31 -80 3 -94 94 -41 107 -82 40 -124 -24 -15 -75
-55 -114 -90 -71 -63 -71 -63 -117 -191 -43 -117 -54 -168 -87 -383 -57 -377
-21 -837 89 -1169 99 -293 186 -499 264 -618 88 -136 218 -273 258 -273 4 0
24 34 45 75 21 41 56 98 77 127 34 45 38 56 33 87 -21 111 -24 156 -15 173 22
41 146 4 169 -52 7 -17 31 -43 53 -57 40 -25 47 -25 51 1 1 8 23 34 49 57 26
23 55 55 64 73 34 67 165 254 223 320 34 37 59 73 57 80 -2 6 -48 16 -103 23
-54 7 -126 20 -159 29 -33 8 -77 20 -98 25 -51 12 -143 56 -247 116 -77 44
-88 54 -113 105 -36 71 -41 182 -10 221 10 13 55 69 99 124 140 173 165 252
120 382 -13 40 -36 91 -50 112 -19 27 -26 52 -26 84 0 74 9 82 77 75 32 -4 68
-4 81 -1 18 5 5 11 -51 24 -41 9 -82 14 -91 11 -22 -8 -20 8 5 57 11 22 19 45
17 51 -2 6 -13 -8 -23 -31 -16 -33 -25 -41 -47 -41 -35 0 -38 6 -27 63 11 64
46 109 79 105 20 -2 26 -9 28 -35 3 -30 4 -31 33 -21 16 5 46 8 67 5 46 -6
125 10 173 34 63 32 135 96 158 140 12 24 31 60 41 80 15 29 19 60 20 140 2
147 -26 234 -94 298 -14 14 -26 28 -26 32 0 3 25 19 56 34 l55 27 34 -38 c19
-22 34 -42 35 -46 0 -3 13 -9 29 -13 20 -4 31 -13 33 -28 2 -14 24 -34 63 -57
54 -32 68 -35 145 -38 108 -4 125 6 86 47 -16 17 -44 37 -63 46 -19 9 -37 23
-40 31 -3 8 -16 14 -30 14 -24 0 -25 3 -20 36 3 19 14 51 24 71 15 31 26 39
68 49 69 18 95 17 101 -3 14 -44 38 -93 45 -93 4 0 31 25 60 55 l53 56 60 -3
61 -3 3 -62 c3 -59 4 -62 30 -65 19 -2 27 -9 27 -23 0 -23 34 -42 102 -54 56
-11 62 -8 40 17 -22 24 -21 32 1 32 18 0 25 16 47 98 5 15 14 22 31 22 30 0
115 -20 129 -30 6 -4 22 -10 38 -14 32 -7 33 -14 10 -87 -11 -36 -16 -90 -16
-165 -1 -105 1 -115 31 -175 32 -63 94 -137 157 -184 41 -32 171 -54 210 -37
42 19 54 14 71 -28 9 -23 19 -39 23 -37 114 61 161 78 192 70 28 -8 35 -15 42
-49 11 -51 2 -215 -16 -281 l-15 -52 54 -26 c29 -14 56 -35 59 -45 7 -22 -18
-82 -52 -124 -18 -21 -22 -36 -18 -56 7 -31 -23 -154 -61 -249 l-25 -64 24
-36 c36 -54 67 -118 67 -137 0 -10 -7 -25 -16 -35 -13 -15 -28 -17 -109 -12
-87 5 -93 5 -104 -15 -53 -99 -233 -252 -383 -325 -158 -78 -390 -147 -492
-147 -29 0 -55 -3 -59 -6 -3 -3 17 -42 45 -86 50 -78 51 -82 60 -181 7 -82 5
-112 -8 -161 -17 -63 -19 -129 -8 -323 l6 -111 77 -50 c105 -69 135 -112 135
-201 1 -41 -5 -79 -13 -94 l-14 -27 -945 0 -944 0 -62 50 c-111 91 -211 212
-377 457 -140 207 -240 416 -332 693 -14 41 -36 107 -50 145 -39 110 -45 150
-77 455 -17 172 -17 195 6 194 10 -1 27 -5 37 -9 15 -6 17 -1 17 41 0 72 -8
89 -43 102 -18 6 -52 32 -76 56 l-44 45 -9 103 c-14 156 4 435 32 488 5 9 20
14 39 14 17 -1 31 0 31 3 0 3 -9 37 -21 76 -16 53 -19 84 -14 124 9 71 51 216
79 273 26 51 25 58 -17 118 -26 38 -28 47 -17 67 9 17 26 25 69 33 31 6 67 11
81 11 51 0 124 113 161 247 12 43 40 108 62 146 39 64 43 68 78 68 32 0 39 -4
52 -32z m1134 -30 c37 -26 56 -64 51 -103 -3 -24 -13 -30 -104 -64 -137 -52
-162 -65 -213 -111 -33 -29 -53 -40 -77 -40 -48 0 -64 9 -64 37 0 14 -5 44
-12 66 -12 39 -11 41 19 66 75 62 290 169 342 170 14 1 40 -9 58 -21z m1346
-34 c43 -22 187 -164 187 -185 0 -30 -31 -30 -79 0 -54 34 -213 101 -241 101
-29 0 -32 15 -9 44 20 26 69 53 97 55 7 1 27 -6 45 -15z m-433 -75 c58 -5 130
-14 160 -19 30 -5 76 -11 101 -14 86 -10 273 -86 301 -123 7 -10 20 -22 29
-28 73 -46 103 -72 141 -122 35 -46 51 -59 78 -63 31 -5 38 -12 73 -82 29 -57
37 -85 33 -104 -8 -32 -55 -77 -73 -70 -15 6 -18 -10 -3 -19 14 -9 65 21 90
52 18 23 20 35 15 73 -12 81 -85 190 -127 190 -9 0 -24 12 -32 28 -8 15 -35
49 -60 76 -25 26 -43 53 -40 58 9 14 83 1 122 -23 18 -10 39 -19 46 -19 29 0
94 -145 108 -239 5 -36 11 -85 15 -108 5 -35 -1 -54 -36 -125 -51 -105 -101
-173 -143 -194 -39 -20 -112 -20 -162 1 -80 33 -162 130 -182 213 -16 67 -19
262 -4 262 6 0 10 -9 10 -19 0 -11 4 -22 9 -25 5 -3 9 -50 9 -103 -1 -81 3
-106 22 -146 26 -55 138 -177 163 -177 26 0 19 12 -25 45 -23 17 -46 39 -52
50 -6 11 -18 31 -27 45 -45 72 -53 245 -15 323 22 45 37 47 70 5 31 -40 35
-19 4 24 -23 34 -161 128 -187 128 -9 0 -36 7 -61 16 -163 57 -448 83 -730 65
-301 -19 -368 -34 -523 -114 -104 -54 -128 -78 -146 -142 -14 -52 -86 -125
-121 -123 -66 4 -80 -1 -86 -32 -7 -34 -28 -39 -44 -10 -6 11 -17 20 -24 20
-7 0 -21 -9 -31 -20 -18 -20 -17 -20 8 -20 31 0 60 -37 55 -72 -3 -19 3 -23
37 -30 37 -6 42 -4 72 30 18 20 47 63 65 95 43 75 98 147 112 147 6 0 4 -5 -4
-10 -13 -8 -11 -17 12 -62 36 -71 40 -86 40 -177 0 -70 -4 -86 -37 -151 -21
-45 -32 -77 -26 -83 11 -11 57 48 67 88 4 17 15 47 25 67 23 45 26 163 5 212
-9 22 -10 38 -4 49 7 13 5 17 -6 17 -18 0 -46 49 -46 80 0 25 8 26 27 3 63
-81 102 -239 83 -338 -23 -117 -94 -215 -195 -268 -56 -29 -172 -28 -211 2
-33 26 -74 27 -106 1 l-25 -19 -59 30 c-76 40 -81 44 -119 104 -47 76 -60 127
-59 235 2 135 27 195 112 278 35 34 84 74 107 88 48 28 145 45 145 25 0 -17
-19 -52 -42 -78 -22 -23 -21 -58 1 -58 7 0 30 31 50 68 67 126 156 196 311
242 170 51 217 63 300 74 47 7 114 16 150 22 36 5 81 11 100 13 54 5 274 -3
390 -15z m-1433 -246 c-26 -30 -77 -56 -77 -41 0 19 12 32 40 45 40 19 56 17
37 -4z m1913 -93 c0 -5 -5 -10 -11 -10 -5 0 -7 5 -4 10 3 6 8 10 11 10 2 0 4
-4 4 -10z m37 -25 c-14 -28 -37 -41 -37 -20 0 8 10 21 22 29 29 20 28 20 15
-9z m-1677 -242 c0 -10 -9 -29 -20 -43 l-20 -25 0 36 c0 20 3 39 7 42 13 13
33 7 33 -10z m-432 -306 c24 -51 38 -69 79 -95 27 -17 64 -37 81 -43 24 -8 32
-17 32 -35 0 -13 -4 -24 -10 -24 -5 0 -10 -8 -10 -19 0 -32 -25 -45 -52 -27
-28 18 -153 66 -173 66 -22 0 -18 -23 12 -77 30 -55 35 -59 84 -73 42 -12 93
-82 102 -142 5 -35 50 -103 90 -138 27 -23 32 -81 12 -124 -10 -20 -15 -40
-11 -44 10 -9 24 16 37 66 13 47 26 54 35 17 9 -36 -3 -87 -35 -147 -30 -58
-114 -173 -166 -228 -49 -52 -58 -78 -58 -155 0 -96 24 -181 76 -270 l29 -50
-27 25 c-40 37 -69 93 -106 207 -31 96 -32 104 -19 145 15 47 51 116 85 163
11 17 28 43 36 59 7 16 35 53 62 82 78 85 53 80 -30 -7 -142 -147 -190 -253
-180 -390 7 -91 13 -85 -88 -94 -68 -5 -71 -5 -104 25 l-33 31 6 117 c3 64 8
133 12 153 l6 37 -44 7 c-87 14 -238 97 -238 131 0 13 114 123 155 150 25 17
32 42 16 60 -20 20 -84 214 -103 309 -14 73 -18 121 -14 180 9 121 25 125 178
44 51 -27 95 -49 98 -49 4 0 19 24 35 53 47 88 97 167 106 167 5 0 22 -28 37
-63z m213 -396 c-3 -56 1 -73 30 -132 18 -38 30 -71 26 -75 -7 -7 -65 57 -84
93 -13 26 -18 139 -7 168 4 9 14 15 23 13 13 -3 15 -14 12 -67z m4 -1191 c11
-13 38 -34 60 -48 95 -60 242 -183 258 -217 21 -44 21 -45 -1 -45 -10 0 -26
14 -36 31 -31 52 -76 98 -158 161 -87 66 -195 165 -163 150 11 -6 29 -20 40
-32z m376 -374 c-6 -7 -37 -16 -69 -18 -77 -6 -122 -44 -122 -102 0 -57 -17
-33 -25 36 -7 52 -5 57 16 69 32 17 83 26 153 28 49 1 57 -1 47 -13z"/>
<path d="M2652 3862 c-22 -15 6 -59 62 -99 44 -32 61 -37 131 -44 44 -4 92
-10 108 -14 35 -9 35 4 0 45 -35 42 -62 51 -157 55 -43 2 -81 6 -84 9 -2 3 1
12 8 21 7 9 10 18 7 21 -10 10 -62 14 -75 6z"/>
<path d="M3140 3779 c0 -7 -10 -9 -30 -5 -16 3 -30 3 -30 0 0 -4 18 -22 41
-42 22 -20 49 -54 60 -77 11 -23 33 -57 49 -76 25 -29 29 -31 29 -14 1 11 -13
47 -29 79 -17 32 -30 63 -30 69 0 5 -13 25 -30 44 -16 18 -30 28 -30 22z"/>
<path d="M606 3681 c-4 -7 -5 -15 -2 -18 9 -9 19 4 14 18 -4 11 -6 11 -12 0z"/>
<path d="M3501 3226 c-9 -11 -1 -14 43 -19 64 -6 104 -26 146 -69 57 -62 121
-221 135 -341 8 -61 25 -88 25 -38 0 93 -32 252 -57 282 -7 8 -13 19 -13 22 0
13 -68 112 -91 134 -13 12 -37 26 -52 32 -40 16 -122 14 -136 -3z"/>
<path d="M2614 3185 c-149 -47 -250 -170 -285 -348 -22 -114 7 -262 64 -324
25 -28 53 -31 42 -5 -24 57 -55 206 -55 267 0 116 33 189 127 282 74 73 142
103 233 103 69 0 77 12 21 28 -48 15 -94 14 -147 -3z"/>
<path d="M3840 3130 c0 -19 3 -21 12 -12 9 9 9 15 0 24 -9 9 -12 7 -12 -12z"/>
<path d="M3499 2839 c-14 -27 -4 -112 18 -146 10 -15 24 -23 37 -21 18 3 21
11 24 55 3 44 0 53 -17 63 -14 7 -21 21 -21 40 0 36 -24 41 -41 9z"/>
<path d="M2869 2740 c-23 -75 27 -182 75 -164 12 5 16 21 16 64 0 50 -3 60
-21 65 -16 5 -20 14 -17 38 2 26 -1 33 -19 35 -18 3 -24 -4 -34 -38z"/>
<path d="M3831 2694 c0 -11 3 -14 6 -6 3 7 2 16 -1 19 -3 4 -6 -2 -5 -13z"/>
<path d="M3341 2466 c10 -8 89 -13 89 -5 0 5 -21 9 -47 9 -25 0 -44 -2 -42 -4z"/>
<path d="M3038 2113 c4 -160 19 -227 62 -268 26 -25 38 -29 82 -28 50 1 55 4
95 47 23 26 63 83 89 127 27 45 59 89 72 98 59 41 82 64 82 83 0 19 -1 19 -31
-3 -40 -28 -91 -21 -124 17 l-23 27 -32 -26 c-20 -17 -43 -27 -64 -27 -53 0
-134 29 -170 60 -18 17 -35 30 -37 30 -2 0 -3 -62 -1 -137z"/>
<path d="M2015 1310 c-10 -11 -15 -23 -12 -27 7 -6 36 25 37 40 0 11 -6 8 -25
-13z"/>
<path d="M2980 921 c0 -12 5 -21 10 -21 6 0 10 6 10 14 0 8 -4 18 -10 21 -5 3
-10 -3 -10 -14z"/>
<path d="M2750 905 c0 -14 5 -25 10 -25 6 0 10 11 10 25 0 14 -4 25 -10 25 -5
0 -10 -11 -10 -25z"/>
<path d="M1511 834 c0 -11 3 -14 6 -6 3 7 2 16 -1 19 -3 4 -6 -2 -5 -13z"/>
<path d="M2810 749 c0 -24 24 -50 38 -41 9 6 6 14 -13 32 -18 17 -25 19 -25 9z"/>
<path d="M1759 3829 l-24 -21 35 7 c41 9 44 10 35 24 -9 16 -19 14 -46 -10z"/>
<path d="M1585 3738 c-26 -43 -35 -63 -50 -121 -14 -48 -13 -49 18 -83 21 -23
44 -37 70 -41 51 -8 49 15 -3 47 -47 29 -60 58 -36 76 12 8 15 20 11 37 -7 27
9 67 26 67 6 0 9 -7 5 -15 -3 -8 -1 -15 5 -15 7 0 8 12 4 33 -13 58 -22 61
-50 15z"/>
<path d="M1780 3710 c0 -5 5 -10 10 -10 6 0 10 5 10 10 0 6 -4 10 -10 10 -5 0
-10 -4 -10 -10z"/>
<path d="M3630 3684 c0 -14 7 -41 15 -60 8 -19 22 -49 30 -68 17 -38 55 -76
41 -41 -4 11 -14 39 -22 61 -8 23 -21 55 -29 70 -8 16 -15 37 -15 47 0 9 -4
17 -10 17 -5 0 -10 -12 -10 -26z"/>
<path d="M3680 3666 c0 -16 82 -146 93 -146 14 0 7 17 -32 77 -35 54 -61 84
-61 69z"/>
<path d="M1255 3080 c-3 -5 -2 -10 4 -10 5 0 13 5 16 10 3 6 2 10 -4 10 -5 0
-13 -4 -16 -10z"/>
</g>
</svg>
